<?xml version="1.0" encoding="iso-8859-1"?>
<!-- Generator: Adobe Illustrator 18.1.1, SVG Export Plug-In . SVG Version: 6.00 Build 0)  -->
<svg version="1.1" id="Capa_1" xmlns="http://www.w3.org/2000/svg" xmlns:xlink="http://www.w3.org/1999/xlink" x="0px" y="0px"
	 viewBox="0 0 24.069 24.069" style="enable-background:new 0 0 24.069 24.069;" xml:space="preserve">
<g>
	<path style="fill:#010002;" d="M14.647,1.587c0.483,0,0.875,0.392,0.875,0.875s-0.392,0.875-0.875,0.875s-0.875-0.392-0.875-0.875
		S14.164,1.587,14.647,1.587z M15.071,11.838l-0.272-0.523c0-0.12-0.018-0.235-0.03-0.35V7.251c0.403-0.104,0.705-0.522,0.705-1.024
		c0-0.581-0.402-1.05-0.898-1.05h-1.791c0.089-0.174,0.148-0.363,0.148-0.571c0-0.711-0.577-1.287-1.289-1.287
		c-0.711,0-1.288,0.576-1.288,1.287c0,0.208,0.062,0.397,0.148,0.571H9.637c-0.496,0-0.898,0.469-0.898,1.05
		c0,0.502,0.303,0.92,0.705,1.024v3.714c-0.013,0.114-0.029,0.229-0.029,0.35l-0.222,0.424c-2.163,1.056-3.658,3.264-3.658,5.831
		c0,3.589,2.91,6.499,6.5,6.499c3.589,0,6.498-2.91,6.498-6.499C18.535,15.08,17.129,12.928,15.071,11.838z M9.664,18.354
		c-0.61,0-1.105-0.495-1.105-1.104c0-0.61,0.495-1.105,1.105-1.105c0.609,0,1.104,0.495,1.104,1.105
		C10.768,17.858,10.274,18.354,9.664,18.354z M12.849,20.36c-0.539,0-0.975-0.437-0.975-0.976c0-0.538,0.437-0.975,0.975-0.975
		s0.975,0.437,0.975,0.975C13.826,19.924,13.389,20.36,12.849,20.36z M13.457,16.167c-0.899,0-1.628-0.729-1.628-1.627
		s0.729-1.628,1.628-1.628c0.898,0,1.627,0.729,1.627,1.628S14.355,16.167,13.457,16.167z M12.126,0
		c0.426,0,0.771,0.345,0.771,0.771s-0.345,0.771-0.771,0.771c-0.426,0-0.771-0.345-0.771-0.771S11.7,0,12.126,0z"/>
</g>
<g>
</g>
<g>
</g>
<g>
</g>
<g>
</g>
<g>
</g>
<g>
</g>
<g>
</g>
<g>
</g>
<g>
</g>
<g>
</g>
<g>
</g>
<g>
</g>
<g>
</g>
<g>
</g>
<g>
</g>
</svg>
