<?xml version="1.0" encoding="iso-8859-1"?>
<!-- Generator: Adobe Illustrator 18.1.1, SVG Export Plug-In . SVG Version: 6.00 Build 0)  -->
<svg version="1.1" id="Capa_1" xmlns="http://www.w3.org/2000/svg" xmlns:xlink="http://www.w3.org/1999/xlink" x="0px" y="0px"
	 viewBox="0 0 595.28 595.28" style="enable-background:new 0 0 595.28 595.28;" xml:space="preserve">
<g>
	<circle style="fill:#010002;" cx="101.151" cy="63.016" r="63.016"/>
	<circle style="fill:#010002;" cx="494.361" cy="63.016" r="63.016"/>
	<circle style="fill:#010002;" cx="494.361" cy="398.791" r="62.783"/>
	<circle style="fill:#010002;" cx="101.151" cy="398.791" r="63.016"/>
	<path style="fill:#010002;" d="M579.7,214.161c0-45.344-38.135-81.851-85.106-81.851c-47.204,0-85.339,36.74-85.339,81.851v29.764
		l-49.529,52.785H237.182l-50.924-54.18v-28.369c0-45.344-38.135-81.851-85.339-81.851S15.58,169.05,15.58,214.161v45.576H168.12
		l41.856,44.646v98.826l-49.064,88.362c-15.347-14.649-36.507-23.718-59.761-23.718c-47.204,0-85.339,36.74-85.339,81.851v45.576
		h170.445v-45.576c0-13.254-3.488-25.346-9.301-36.507l59.063-105.337h124.637l58.365,104.174
		c-6.046,11.394-9.999,23.951-9.999,37.67v45.576h170.445v-45.576c0-45.344-38.135-81.851-85.106-81.851
		c-22.788,0-43.483,8.836-58.83,22.788l-54.18-96.966v-83.711l46.971-50.227H579.7V214.161L579.7,214.161z"/>
</g>
<g>
</g>
<g>
</g>
<g>
</g>
<g>
</g>
<g>
</g>
<g>
</g>
<g>
</g>
<g>
</g>
<g>
</g>
<g>
</g>
<g>
</g>
<g>
</g>
<g>
</g>
<g>
</g>
<g>
</g>
</svg>
