<?xml version="1.0" encoding="iso-8859-1"?>
<!-- Generator: Adobe Illustrator 16.0.0, SVG Export Plug-In . SVG Version: 6.00 Build 0)  -->
<!DOCTYPE svg PUBLIC "-//W3C//DTD SVG 1.1//EN" "http://www.w3.org/Graphics/SVG/1.1/DTD/svg11.dtd">
<svg version="1.1" id="Capa_1" xmlns="http://www.w3.org/2000/svg" xmlns:xlink="http://www.w3.org/1999/xlink" x="0px" y="0px"
	 width="45.74px" height="45.74px" viewBox="0 0 45.74 45.74" style="enable-background:new 0 0 45.74 45.74;" xml:space="preserve"
	>
<g>
	<g>
		<path d="M6.665,11.674l-2.241,2.241C4.13,14.21,4.042,14.668,4.2,15.053c0.159,0.385,0.535,0.652,0.952,0.652h9.457
			c0.568,0,1.034-0.492,1.034-1.061V5.186c0-0.417-0.254-0.792-0.639-0.952c-0.384-0.159-0.828-0.071-1.123,0.223l-2.242,2.242
			L5.7,0.76c-0.968-0.968-2.537-0.968-3.505,0L0.726,2.229C0.261,2.694,0,3.325,0,3.981c0,0.657,0.261,1.288,0.726,1.753
			L6.665,11.674z"/>
		<path d="M14.61,30.1H5.152c-0.418,0-0.793,0.233-0.952,0.619c-0.158,0.384-0.07,0.818,0.223,1.113l2.242,2.237l-5.94,5.938
			C0.261,40.472,0,41.101,0,41.758c0,0.656,0.261,1.286,0.725,1.752l1.471,1.469c0.968,0.968,2.537,0.968,3.504,0l5.939-5.939
			l2.241,2.242c0.297,0.294,0.741,0.382,1.125,0.223c0.385-0.159,0.639-0.534,0.639-0.95v-9.458
			C15.644,30.527,15.178,30.1,14.61,30.1z"/>
		<path d="M39.074,34.065l2.242-2.242c0.293-0.295,0.381-0.721,0.222-1.104c-0.158-0.385-0.533-0.618-0.951-0.618H31.13
			c-0.567,0-1.033,0.427-1.033,0.996v9.458c0,0.417,0.253,0.792,0.638,0.952c0.385,0.158,0.83,0.07,1.123-0.225L34.1,39.04
			l5.94,5.94c0.967,0.968,2.536,0.968,3.504,0l1.47-1.47c0.467-0.466,0.727-1.096,0.727-1.752c0-0.658-0.26-1.288-0.727-1.752
			L39.074,34.065z"/>
		<path d="M31.13,15.704h9.457c0.418,0,0.793-0.267,0.951-0.652c0.159-0.385,0.071-0.835-0.222-1.13l-2.242-2.246l5.938-5.942
			c0.466-0.464,0.728-1.096,0.728-1.753c0-0.657-0.262-1.288-0.728-1.752l-1.47-1.47c-0.967-0.968-2.537-0.968-3.503,0L34.1,6.698
			l-2.24-2.242c-0.295-0.294-0.74-0.382-1.125-0.223c-0.385,0.159-0.638,0.535-0.638,0.951v9.458
			C30.097,15.211,30.562,15.704,31.13,15.704z"/>
		<circle cx="22.87" cy="22.869" r="7.36"/>
	</g>
</g>
<g>
</g>
<g>
</g>
<g>
</g>
<g>
</g>
<g>
</g>
<g>
</g>
<g>
</g>
<g>
</g>
<g>
</g>
<g>
</g>
<g>
</g>
<g>
</g>
<g>
</g>
<g>
</g>
<g>
</g>
</svg>
