<?xml version="1.0" encoding="iso-8859-1"?>
<!-- Generator: Adobe Illustrator 16.0.0, SVG Export Plug-In . SVG Version: 6.00 Build 0)  -->
<!DOCTYPE svg PUBLIC "-//W3C//DTD SVG 1.1//EN" "http://www.w3.org/Graphics/SVG/1.1/DTD/svg11.dtd">
<svg version="1.1" id="Capa_1" xmlns="http://www.w3.org/2000/svg" xmlns:xlink="http://www.w3.org/1999/xlink" x="0px" y="0px"
	 width="191.595px" height="191.595px" viewBox="0 0 191.595 191.595" style="enable-background:new 0 0 191.595 191.595;"
	 xml:space="preserve">
<g>
	<g>
		<path d="M36.16,166.252c4.545-3.051,7.663-9.073,7.663-14.492c0-7.654-6.199-13.858-13.85-13.858s-13.847,6.204-13.847,13.858
			c0,5.419,3.118,11.436,7.663,14.492c-10.851,2.746-18.895,12.173-18.895,19.15c0,4.128,12.541,6.187,25.078,6.187l-7.027-7.021
			l5.918-14.298h-0.064l-2.298-2.63c1.108,0.396,2.268,0.64,3.471,0.64c1.206,0,2.356-0.238,3.468-0.634l-2.295,2.63h-0.061
			L37,184.574l-7.027,7.021c12.547,0,25.078-2.064,25.078-6.187C55.051,178.425,47.008,169.011,36.16,166.252z"/>
		<path d="M101.98,166.252c4.543-3.051,7.66-9.073,7.66-14.492c0-7.654-6.195-13.858-13.847-13.858s-13.85,6.204-13.85,13.858
			c0,5.419,3.117,11.436,7.663,14.492c-10.848,2.746-18.892,12.173-18.892,19.15c0,4.128,12.538,6.187,25.078,6.187l-7.027-7.021
			l5.916-14.298h-0.061l-2.301-2.63c1.111,0.396,2.271,0.64,3.474,0.64s2.356-0.238,3.468-0.634l-2.296,2.63h-0.061l5.915,14.298
			l-7.026,7.021c12.544,0,25.075-2.064,25.075-6.187C120.869,178.425,112.831,169.011,101.98,166.252z"/>
		<path d="M167.805,166.252c4.542-3.051,7.66-9.073,7.66-14.492c0-7.654-6.193-13.858-13.848-13.858
			c-7.647,0-13.847,6.204-13.847,13.858c0,5.419,3.118,11.436,7.66,14.492c-10.845,2.746-18.888,12.173-18.888,19.15
			c0,4.128,12.537,6.187,25.074,6.187l-7.026-7.021l5.919-14.298h-0.062l-2.302-2.637c1.108,0.396,2.266,0.64,3.471,0.64
			c1.206,0,2.363-0.237,3.472-0.633l-2.296,2.63h-0.067l5.919,14.298l-7.027,7.021c12.544,0,25.082-2.064,25.082-6.187
			C186.699,178.425,178.655,169.011,167.805,166.252z"/>
		<path d="M30.323,128.986c1.72,0,3.118-1.395,3.118-3.118V93.137h59.235v32.731c0,1.724,1.397,3.118,3.118,3.118
			s3.118-1.395,3.118-3.118V93.137h59.235v32.731c0,1.724,1.4,3.118,3.118,3.118c1.717,0,3.117-1.395,3.117-3.118v-35.85
			c0-1.723-1.4-3.117-3.117-3.117H98.912V72.872c0-1.724-1.397-3.118-3.118-3.118s-3.118,1.395-3.118,3.118v14.029H30.323
			c-1.72,0-3.118,1.395-3.118,3.117v35.85C27.206,127.592,28.603,128.986,30.323,128.986z"/>
		<path d="M66.651,56.328c0,4.795,14.565,7.191,29.143,7.191c14.577,0,29.143-2.396,29.143-7.191c0-6.147-5.395-13.917-13.5-18.712
			c3.758-0.48,6.681-1.37,6.681-1.37s-6.235-2.914-6.235-19.007S100.732-2.116,95.794,1.132c-4.808-3.118-16.094,0-16.094,16.1
			c0,16.1-6.235,19.007-6.235,19.007s2.926,0.896,6.671,1.37C72.043,42.405,66.651,50.181,66.651,56.328z M95.794,6.326
			c5.063,6.431,10.912,7.539,10.912,13.022c0,5.48-4.189,17.071-10.912,17.071c1.065,0,2.095-0.201,3.105-0.487
			c0.149,0.101,0.28,0.22,0.436,0.308l-2.183,2.5h-0.067l0.042,0.106c-0.441-0.027-0.871-0.106-1.328-0.106
			c-0.454,0-0.886,0.073-1.327,0.106l0.042-0.106h-0.067l-2.189-2.5c0.155-0.088,0.286-0.207,0.435-0.308
			c1.011,0.286,2.04,0.487,3.112,0.487c-6.723,0-10.93-11.591-10.912-17.071C84.906,10.61,90.53,10.032,95.794,6.326z"/>
	</g>
</g>
<g>
</g>
<g>
</g>
<g>
</g>
<g>
</g>
<g>
</g>
<g>
</g>
<g>
</g>
<g>
</g>
<g>
</g>
<g>
</g>
<g>
</g>
<g>
</g>
<g>
</g>
<g>
</g>
<g>
</g>
</svg>
