<?xml version="1.0" encoding="iso-8859-1"?>
<!-- Generator: Adobe Illustrator 18.1.1, SVG Export Plug-In . SVG Version: 6.00 Build 0)  -->
<svg version="1.1" id="Capa_1" xmlns="http://www.w3.org/2000/svg" xmlns:xlink="http://www.w3.org/1999/xlink" x="0px" y="0px"
	 viewBox="0 0 419.226 419.226" style="enable-background:new 0 0 419.226 419.226;" xml:space="preserve">
<g>
	<g>
		<path style="fill:#010002;" d="M209.741,419.226l-1.152-0.197c-2.029-0.352-202.683-37.52-202.683-240.823
			c0-59.806,18.646-117.159,52.514-161.481l2.787-3.652l4.242,1.766c18.545,7.709,38.188,11.623,58.386,11.623
			c29.369,0,57.908-8.425,82.534-24.357L209.616,0l3.24,2.1c24.625,15.932,53.165,24.357,82.534,24.357
			c20.192,0,39.835-3.908,58.38-11.623l4.242-1.766l2.793,3.652c33.862,44.322,52.514,101.675,52.514,161.481
			c0,194.245-200.403,240.328-202.426,240.775L209.741,419.226z"/>
	</g>
</g>
<g>
</g>
<g>
</g>
<g>
</g>
<g>
</g>
<g>
</g>
<g>
</g>
<g>
</g>
<g>
</g>
<g>
</g>
<g>
</g>
<g>
</g>
<g>
</g>
<g>
</g>
<g>
</g>
<g>
</g>
</svg>
