<?xml version="1.0" standalone="no"?>
<!DOCTYPE svg PUBLIC "-//W3C//DTD SVG 1.1//EN" "http://www.w3.org/Graphics/SVG/1.1/DTD/svg11.dtd">
<svg width="100%" height="100%" viewBox="0 0 269 150" version="1.1" xmlns="http://www.w3.org/2000/svg" xmlns:xlink="http://www.w3.org/1999/xlink" xml:space="preserve" style="fill-rule:evenodd;clip-rule:evenodd;stroke-linejoin:round;stroke-miterlimit:1.41421;">
    <g transform="matrix(1,0,0,0.973713,0,-52.9707)">
        <path d="M268.765,104.225C268.765,46.702 223.291,0 167.28,0L101.485,0C45.474,0 0,46.702 0,104.225C0,161.748 45.474,208.45 101.485,208.45L167.28,208.45C223.291,208.45 268.765,161.748 268.765,104.225Z" style="fill:rgb(86,86,86);"/>
    </g>
    <g transform="matrix(1.00938,0,0,0.732167,-2.83064,-8.66711)">
        <rect x="-28.654" y="-9.739" width="330.537" height="87.883" style="fill:rgb(86,86,86);"/>
    </g>
    <g id="Settings" transform="matrix(0.363361,0,0,0.363361,85.5534,17.184)">
        <path d="M267.92,119.461C267.495,115.683 263.09,112.844 259.281,112.844C246.966,112.844 236.038,105.613 231.455,94.43C226.773,82.976 229.792,69.618 238.97,61.199C241.859,58.558 242.21,54.137 239.787,51.066C233.484,43.062 226.32,35.832 218.498,29.566C215.435,27.108 210.941,27.45 208.285,30.391C200.275,39.262 185.887,42.559 174.769,37.92C163.199,33.053 155.903,21.329 156.617,8.744C156.852,4.791 153.963,1.354 150.022,0.895C139.984,-0.266 129.858,-0.302 119.79,0.815C115.894,1.245 113.005,4.601 113.136,8.504C113.574,20.965 106.19,32.484 94.735,37.176C83.75,41.663 69.463,38.394 61.469,29.602C58.827,26.706 54.406,26.35 51.328,28.749C43.274,35.068 35.949,42.304 29.588,50.242C27.107,53.328 27.472,57.801 30.39,60.456C39.743,68.926 42.763,82.4 37.904,93.986C33.265,105.032 21.795,112.151 8.664,112.151C4.403,112.014 1.368,114.874 0.902,118.748C-0.28,128.844 -0.294,139.131 0.844,149.309C1.266,153.103 5.805,155.917 9.656,155.917C21.358,155.618 32.593,162.863 37.306,174.332C42.004,185.786 38.984,199.136 29.792,207.562C26.917,210.203 26.552,214.617 28.975,217.688C35.219,225.641 42.384,232.878 50.234,239.196C53.313,241.677 57.793,241.327 60.462,238.386C68.502,229.493 82.889,226.202 93.963,230.85C105.562,235.702 112.858,247.425 112.144,260.017C111.911,263.972 114.814,267.415 118.739,267.867C123.874,268.466 129.04,268.765 134.22,268.765C139.137,268.765 144.055,268.495 148.972,267.948C152.869,267.518 155.756,264.162 155.625,260.252C155.174,247.798 162.571,236.279 174.011,231.595C185.07,227.078 199.297,230.384 207.292,239.167C209.949,242.057 214.339,242.406 217.434,240.015C225.473,233.711 232.783,226.481 239.174,218.521C241.654,215.442 241.304,210.962 238.371,208.308C229.018,199.838 225.983,186.362 230.842,174.784C235.41,163.885 246.454,156.567 258.333,156.567L259.995,156.61C263.848,156.923 267.393,153.955 267.86,150.022C269.044,139.917 269.058,129.639 267.92,119.461ZM134.595,179.491C109.877,179.491 89.771,159.385 89.771,134.667C89.771,109.95 109.877,89.843 134.595,89.843C159.312,89.843 179.418,109.95 179.418,134.667C179.418,159.385 159.312,179.491 134.595,179.491Z" style="fill:white;"/>
    </g>
</svg>
